<?xml version="1.0" encoding="utf-8"?>
<!-- Generator: Adobe Illustrator 22.1.0, SVG Export Plug-In . SVG Version: 6.00 Build 0)  -->
<svg version="1.1" id="Layer_1" xmlns="http://www.w3.org/2000/svg" xmlns:xlink="http://www.w3.org/1999/xlink" x="0px" y="0px"
	 viewBox="0 0 50 50" style="enable-background:new 0 0 50 50;" xml:space="preserve">
<style type="text/css">
	.st0{fill:#B9235A;}
</style>
<g>
	<path class="st0" d="M31,19.3h4.5v14.2c0,1-0.4,1.9-1.1,2.6s-1.6,1.1-2.6,1.1H18.2c-1,0-1.9-0.4-2.6-1.1s-1.1-1.6-1.1-2.6V19.3H19
		c0-1.1,0.3-2.1,0.8-3s1.3-1.6,2.2-2.2s1.9-0.8,3-0.8s2.1,0.3,3,0.8s1.6,1.3,2.2,2.2S31,18.2,31,19.3z M33.2,33.5v-12H31v1.9
		c0,0.3-0.1,0.6-0.3,0.8s-0.5,0.3-0.8,0.3s-0.6-0.1-0.8-0.3s-0.3-0.5-0.3-0.8v-1.9h-7.5v1.9c0,0.3-0.1,0.6-0.3,0.8s-0.5,0.3-0.8,0.3
		s-0.6-0.1-0.8-0.3S19,23.7,19,23.4v-1.9h-2.2v12c0,0.4,0.1,0.8,0.4,1.1s0.6,0.4,1.1,0.4h13.5c0.4,0,0.8-0.1,1.1-0.4
		S33.2,33.9,33.2,33.5z M25,15.5c-1,0-1.9,0.4-2.6,1.1s-1.1,1.6-1.1,2.6h7.5c0-1-0.4-1.9-1.1-2.6S26,15.5,25,15.5z"/>
</g>
</svg>
